<svg xmlns="http://www.w3.org/2000/svg" viewBox="0 0 1200 675">
  <defs>
    <linearGradient id="bg" x1="0" y1="0" x2="1" y2="1">
      <stop offset="0%" stop-color="#0f172a"/>
      <stop offset="100%" stop-color="#1d4ed8"/>
    </linearGradient>
  </defs>
  <rect width="1200" height="675" fill="url(#bg)"/>
  <circle cx="1025" cy="146" r="136" fill="#ffffff" opacity=".06"/>
  <circle cx="164" cy="545" r="174" fill="#34d399" opacity=".10"/>
  <rect x="90" y="88" width="1020" height="498" rx="32" fill="#08111f" opacity=".33"/>
  <rect x="144" y="134" width="350" height="330" rx="30" fill="#ffffff" opacity=".06"/>
  <path d="M200 388l72-98 72 56 84-120 88 162" fill="none" stroke="#86efac" stroke-width="16" stroke-linecap="round" stroke-linejoin="round"/>
  <circle cx="200" cy="388" r="12" fill="#86efac"/>
  <circle cx="272" cy="290" r="12" fill="#86efac"/>
  <circle cx="344" cy="346" r="12" fill="#86efac"/>
  <circle cx="428" cy="226" r="12" fill="#86efac"/>
  <circle cx="516" cy="388" r="12" fill="#86efac"/>
  <rect x="562" y="156" width="454" height="26" rx="13" fill="#ffffff" opacity=".14"/>
  <rect x="562" y="214" width="332" height="24" rx="12" fill="#ffffff" opacity=".10"/>
  <rect x="562" y="296" width="470" height="170" rx="28" fill="#ffffff" opacity=".05"/>
</svg>
