<svg xmlns="http://www.w3.org/2000/svg" viewBox="0 0 1200 675">
  <defs>
    <linearGradient id="bg" x1="0" y1="0" x2="1" y2="1">
      <stop offset="0%" stop-color="#0f172a"/>
      <stop offset="100%" stop-color="#3f3f46"/>
    </linearGradient>
  </defs>
  <rect width="1200" height="675" fill="url(#bg)"/>
  <circle cx="1020" cy="146" r="132" fill="#ffffff" opacity=".06"/>
  <circle cx="176" cy="548" r="164" fill="#ef4444" opacity=".11"/>
  <rect x="88" y="90" width="1024" height="494" rx="32" fill="#06080f" opacity=".34"/>
  <rect x="144" y="146" width="270" height="360" rx="30" fill="#ffffff" opacity=".06"/>
  <ellipse cx="278" cy="262" rx="86" ry="106" fill="#ffffff" opacity=".10"/>
  <circle cx="246" cy="248" r="18" fill="#ffffff" opacity=".20"/>
  <circle cx="314" cy="248" r="18" fill="#ffffff" opacity=".20"/>
  <path d="M228 320c18 24 38 36 50 36s32-12 50-36" stroke="#ffffff" stroke-width="12" stroke-linecap="round" fill="none" opacity=".18"/>
  <rect x="506" y="164" width="474" height="26" rx="13" fill="#ffffff" opacity=".14"/>
  <rect x="506" y="220" width="332" height="24" rx="12" fill="#ffffff" opacity=".10"/>
  <path d="M540 406l74-74 64 64 134-134 108 108" fill="none" stroke="#fca5a5" stroke-width="16" stroke-linecap="round" stroke-linejoin="round" opacity=".9"/>
</svg>
