<svg xmlns="http://www.w3.org/2000/svg" viewBox="0 0 1200 675">
  <defs>
    <linearGradient id="bg" x1="0" y1="0" x2="1" y2="1">
      <stop offset="0%" stop-color="#052e2b"/>
      <stop offset="100%" stop-color="#134e4a"/>
    </linearGradient>
    <linearGradient id="glow" x1="0" y1="0" x2="1" y2="1">
      <stop offset="0%" stop-color="#34d399"/>
      <stop offset="100%" stop-color="#22d3ee"/>
    </linearGradient>
  </defs>
  <rect width="1200" height="675" fill="url(#bg)"/>
  <circle cx="1040" cy="150" r="132" fill="#ffffff" opacity=".07"/>
  <circle cx="170" cy="118" r="110" fill="#99f6e4" opacity=".10"/>
  <rect x="86" y="94" width="1028" height="488" rx="30" fill="#0b1120" opacity=".34"/>
  <rect x="148" y="158" width="332" height="208" rx="28" fill="#ffffff" opacity=".07"/>
  <rect x="188" y="204" width="252" height="16" rx="8" fill="#ffffff" opacity=".16"/>
  <rect x="188" y="242" width="188" height="16" rx="8" fill="#ffffff" opacity=".12"/>
  <rect x="560" y="174" width="470" height="24" rx="12" fill="#ffffff" opacity=".13"/>
  <rect x="560" y="230" width="380" height="24" rx="12" fill="#ffffff" opacity=".10"/>
  <rect x="560" y="298" width="500" height="186" rx="30" fill="url(#glow)" opacity=".32"/>
  <path d="M621 392h115m-115-56h268m-268 112h198" stroke="#d1fae5" stroke-width="18" stroke-linecap="round" opacity=".9"/>
</svg>
