<svg xmlns="http://www.w3.org/2000/svg" viewBox="0 0 1200 675">
  <defs>
    <linearGradient id="bg" x1="0" y1="0" x2="1" y2="1">
      <stop offset="0%" stop-color="#082032"/>
      <stop offset="100%" stop-color="#155e75"/>
    </linearGradient>
  </defs>
  <rect width="1200" height="675" fill="url(#bg)"/>
  <circle cx="1024" cy="150" r="132" fill="#ffffff" opacity=".07"/>
  <circle cx="172" cy="552" r="168" fill="#2dd4bf" opacity=".10"/>
  <rect x="90" y="90" width="1020" height="495" rx="32" fill="#07111e" opacity=".32"/>
  <rect x="182" y="132" width="250" height="410" rx="42" fill="#ffffff" opacity=".08"/>
  <rect x="250" y="156" width="116" height="14" rx="7" fill="#ffffff" opacity=".20"/>
  <rect x="208" y="208" width="198" height="126" rx="22" fill="#67e8f9" opacity=".82"/>
  <rect x="208" y="356" width="198" height="22" rx="11" fill="#ffffff" opacity=".16"/>
  <rect x="208" y="398" width="162" height="22" rx="11" fill="#ffffff" opacity=".12"/>
  <path d="M560 398l76-92 72 50 90-118 94 160" fill="none" stroke="#99f6e4" stroke-width="16" stroke-linecap="round" stroke-linejoin="round" opacity=".9"/>
  <rect x="530" y="160" width="468" height="24" rx="12" fill="#ffffff" opacity=".14"/>
  <rect x="530" y="216" width="334" height="24" rx="12" fill="#ffffff" opacity=".10"/>
</svg>
