<svg xmlns="http://www.w3.org/2000/svg" viewBox="0 0 100 100">
<!-- SVG created with Arrow, by QuiverAI (https://quiver.ai) -->
  <style type="text/css">.cls-0 {fill:#0C0C38;}
.cls-1 {fill:#19193F;}
.cls-2 {fill:#FFFFFF;}
.cls-3 {fill:none;stroke:#0C0C38;stroke-width:0.75;stroke-linecap:round;stroke-linejoin:round;stroke-miterlimit:10;}
.cls-4 {fill:none;stroke:#1EDB93;stroke-width:0.75;stroke-linecap:round;stroke-linejoin:round;stroke-miterlimit:10;}
.cls-5 {fill:none;stroke:#1EDB93;stroke-width:0.7;stroke-linecap:round;stroke-linejoin:round;stroke-miterlimit:10;}
.cls-6 {fill:#1EDB93;}
.cls-7 {fill:none;stroke:#0A435B;stroke-width:0.342;stroke-linecap:round;stroke-linejoin:round;stroke-miterlimit:10;}
.cls-8 {fill:none;stroke:#0A435B;stroke-width:0.342;stroke-miterlimit:10;}
.cls-9 {fill:#7854FC;}
.cls-10 {fill:none;stroke:#1EDB93;stroke-width:0.684;stroke-linecap:round;stroke-linejoin:round;stroke-miterlimit:10;}
.cls-11 {fill:none;stroke:#0C0C38;stroke-width:0.7;stroke-linecap:round;stroke-linejoin:round;stroke-miterlimit:10;}</style>
  <path class="cls-0" d="m65.1 51.9 6-6.4c0.8-0.8 1.4-2 1.4-3.3v-18.6c0-1-0.5-2.1-1.2-2.9l-14.3-14.9c-0.7-0.7-1.4-1.4-2.2-1.7l-9.3-3.2c-1-0.3-1.7 0.1-2.2 0.6l-14.5 15.2c-0.8 0.8-1.2 2-1.2 3.2v18.7c0 1.3 0.3 2.6 1.3 3.7l6.2 6.6-6.2 6.6c-0.7 0.8-1.3 2.1-1.3 3.2v18.9c0 1.2 0.5 2.6 1.5 3.6l14.2 14.3c0.3 0.3 0.6 0.5 1.2 0.7l8.4 2.8c1.4 0.5 3.2 0.3 4.2-0.6l13.8-14.2c1-0.9 1.5-2 1.5-3.7v-18.5c0-1.2-0.4-2.3-1.1-3.2l-6.2-6.9z"/>
  <path class="cls-1" d="m49.1 4.8 11.9 12.9c1 1 3.5 1.9 5.9 2.3l0.1-0.3-12.9-13.6-5-1.3z"/>
  <path class="cls-1" d="m55.5 50.5 5.8 5.9c0.9 0.9 4.9 1.9 6.4 2.3l0.1-0.1-5.2-5.8-7.1-2.3z"/>
  <path class="cls-2" d="m44.1 4.4-13.2 14c-0.5 0.6-0.8 1.2-0.8 1.9v18.1c0 0.8 0.3 1.5 0.8 2.1l13.9 15.4c0.7 0.8 1.2 1.8 1.2 2.8v19.1c0 0.5-0.4 0.9-0.9 0.9h-0.3c-0.5 0-0.9-0.4-0.9-0.9v-19c0-0.5-0.2-1-0.6-1.5l-5.7-6.3c-0.2-0.3-0.6-0.3-0.9 0l-5.7 6c-0.5 0.5-0.9 1.2-0.9 2v18.5c0 0.8 0.3 1.5 0.8 1.9l13.5 13.6c0.3 0.4 0.8 0.4 1.1 0l13.2-13.4c0.5-0.5 1-1.3 1-1.9v-18.8c0-0.7-0.4-1.3-0.8-1.8l-14-15.4c-0.6-0.8-1-1.6-1-2.9v-18.7c0-0.5 0.4-0.9 0.9-0.9h0.3c0.5 0 0.9 0.4 0.9 0.9v18.5c0 0.6 0.3 1.3 0.6 1.7l5.5 6.4c0.3 0.4 0.7 0.4 1 0.1l5.5-6c0.6-0.6 1-1.3 1-2.3v-18.2c0-0.7-0.4-1.4-0.9-2l-13.1-13.9c-0.4-0.4-1.1-0.7-1.5 0z"/>
  <path class="cls-2" d="m61.9 41.3-7.2 6.9 8.5 2.5 5.4-6-6.7-3.4z"/>
  <path class="cls-3" d="m38.4 26.3v-3.9l5.6-6h4.2l3.8 4.2v11l3 3.2"/>
  <path class="cls-4" d="m33.6 36.6v-8.3l4.7-4.6"/>
  <path class="cls-5" d="m34.8 20.1 7.5-7.7"/>
  <path class="cls-4" d="m48.6 12.5 7.3 7.8v2.6"/>
  <path class="cls-3" d="m41.4 47.6-3.7-3.8v-7.5"/>
  <path class="cls-3" d="m53.8 41.7-4.9-3.9v-10.7"/>
  <path class="cls-3" d="m41.4 29.2v13.2l14.4 15.2 0.1 10.3"/>
  <path class="cls-4" d="m41.5 47.6 7.4 7.8v4.5"/>
  <path class="cls-5" d="m37.7 70.2v5.5l5.9 5.7h1.9l3.3-3.3 0.1-8.6"/>
  <path class="cls-3" d="m34.4 63.8 0.1 14.6 5.1 5.4"/>
  <path class="cls-11" d="m45.6 88.6 7.1-7.5v-15.2"/>
  <path class="cls-6" d="m33.6 36.6c-0.6 0.1-1.2 0.7-1 1.3 0 0.5 0.5 1 1.2 1 0.6 0 1.1-0.6 1-1.4-0.2-0.5-0.7-1-1.2-0.9z"/>
  <path class="cls-3" d="m33.6 36.6c-0.6 0.1-1 0.5-0.9 1.1 0 0.6 0.5 1 1.1 1s1-0.5 1-1.1c-0.1-0.6-0.6-1.1-1.2-1z"/>
  <path class="cls-6" d="m42.9 10.6c-1.5 0-1.4 2.2 0 2.1s1.4-2.1 0-2.1z"/>
  <path class="cls-3" d="m42.9 10.6c-1.4 0-1.4 2.1 0 2.1 1.3 0 1.5-2.1 0-2.1z"/>
  <path class="cls-6" d="m34.2 19.6c-1.5 0.1-1.5 2.2 0 2.2 1.3 0 1.5-2.2 0-2.2z"/>
  <path class="cls-3" d="m34.2 19.6c-1.4 0-1.4 2.2 0 2.2 1.2 0 1.5-2.1 0-2.2z"/>
  <path class="cls-6" d="m47.8 10.9c-1.3 0.1-1.2 2.2 0.1 2.1 1.5 0 1.4-2.2-0.1-2.1z"/>
  <path class="cls-3" d="m47.8 10.9c-1.3 0.1-1.2 2.2 0.1 2.1 1.6 0 1.4-2.2-0.1-2.1z"/>
  <path class="cls-6" d="m55.9 22.9c-1.4 0.1-1.4 2.1 0.1 2.1 1.4 0 1.4-2.1-0.1-2.1z"/>
  <path class="cls-3" d="m55.9 22.9c-1.4 0-1.4 2.1 0.1 2.1 1.3 0 1.4-2.1-0.1-2.1z"/>
  <path class="cls-9" d="m55.5 34.5c-1.4 0.1-1.4 2.3 0.1 2.2 1.4-0.1 1.4-2.2-0.1-2.2z"/>
  <path class="cls-3" d="m55.5 34.5c-1.4 0-1.3 2.3 0.1 2.2s1.4-2.2-0.1-2.2z"/>
  <path class="cls-9" d="m52.4 40.7c-1.3 0.1-1.3 2.3 0.2 2.2 1.4-0.1 1.4-2.2-0.2-2.2z"/>
  <path class="cls-3" d="m52.4 40.7c-1.3 0-1.2 2.3 0.2 2.2 1.2-0.1 1.4-2.2-0.2-2.2z"/>
  <path class="cls-9" d="m48.8 25.2c-1.4 0.1-1.3 2.1 0.1 2 1.5 0 1.4-2-0.1-2z"/>
  <path class="cls-3" d="m48.8 25.2c-1.3 0.1-1.3 2.1 0.1 2.1 1.4-0.1 1.5-2.1-0.1-2.1z"/>
  <path class="cls-6" d="m41.3 27.5c-1.4 0-1.4 2.1 0.1 2 1.3-0.1 1.4-2-0.1-2z"/>
  <path class="cls-3" d="m41.4 27.5c-1.4 0-1.4 2 0 2 1.3 0 1.4-2 0-2z"/>
  <path class="cls-9" d="m37.7 34.1c-1.4 0-1.4 2.3 0.1 2.3 1.3-0.1 1.5-2.1-0.1-2.3z"/>
  <path class="cls-3" d="m37.7 34.1c-1.3 0-1.4 2.2 0 2.3 1.4 0 1.6-2.1 0-2.3z"/>
  <path class="cls-6" d="m48.8 60c-1.4 0-1.3 2.2 0.2 2 1.3-0.1 1.3-2-0.2-2z"/>
  <path class="cls-3" d="m48.8 60c-1.3 0.1-1.3 2.1 0.2 2 1.3 0 1.3-2-0.2-2z"/>
  <path class="cls-6" d="m48.8 67.2c-1.4 0.1-1.3 2.3 0.1 2.2 1.5-0.1 1.4-2.3-0.1-2.2z"/>
  <path class="cls-3" d="m48.8 67.2c-1.3 0.1-1.3 2.2 0.2 2.2 1.3-0.1 1.3-2.3-0.2-2.2z"/>
  <path class="cls-6" d="m52.6 64.1c-1.4 0.2-1.3 2.2 0.2 2.1 1.4-0.1 1.3-2.1-0.2-2.1z"/>
  <path class="cls-3" d="m52.6 64.1c-1.3 0.1-1.3 2.1 0.2 2.1 1.3-0.1 1.3-2.1-0.2-2.1z"/>
  <path class="cls-9" d="m55.8 67.8c-1.3 0.2-1.2 2.4 0.3 2.2 1.3-0.1 1.2-2.2-0.3-2.2z"/>
  <path class="cls-3" d="m55.8 67.8c-1.3 0.2-1.2 2.3 0.3 2.2 1.3-0.1 1.2-2.2-0.3-2.2z"/>
  <path class="cls-9" d="m44.9 88.2c-1.4 0.1-1.2 2.2 0.2 2.1 1.3-0.1 1.3-2.1-0.2-2.1z"/>
  <path class="cls-3" d="m44.9 88.2c-1.4 0.1-1.2 2.2 0.2 2.1 1.2-0.1 1.3-2-0.2-2.1z"/>
  <path class="cls-9" d="m40.3 83.2c-1.3 0.1-1.3 2.2 0.2 2.1 1.3-0.1 1.3-2.1-0.2-2.1z"/>
  <path class="cls-3" d="m40.4 83.2c-1.4 0.1-1.4 2.2 0.1 2.1 1.2-0.1 1.3-2-0.1-2.1z"/>
  <path class="cls-6" d="m37.6 67.6c-1.4 0.2-1.3 2.3 0.2 2.2 1.3-0.1 1.3-2.1-0.2-2.2z"/>
  <path class="cls-3" d="m37.6 67.6c-1.3 0.2-1.3 2.3 0.2 2.2 1.2-0.1 1.3-2-0.2-2.2z"/>
  <path class="cls-9" d="m34.3 61.8c-1.3 0.1-1.3 2.2 0.2 2 1.3-0.1 1.3-2-0.2-2z"/>
  <path class="cls-3" d="m34.4 61.8c-1.3 0.1-1.4 2 0.1 2 1.2 0 1.3-2-0.1-2z"/>
  <path class="cls-3" d="m37.9 56.1 3.1 3.2v12.3"/>
  <path class="cls-9" d="m37.2 54.4c-1.4 0-1.4 2.2 0.1 2.1 1.3-0.1 1.3-2.1-0.1-2.1z"/>
  <path class="cls-3" d="m37.2 54.4c-1.4 0.1-1.3 2.2 0.1 2.1 1.3-0.1 1.3-2-0.1-2.1z"/>
  <path class="cls-9" d="m40.9 71.6c-1.4 0.1-1.3 2.3 0.2 2.2 1.4-0.2 1.3-2.2-0.2-2.2z"/>
  <path class="cls-3" d="m40.9 71.6c-1.3 0.1-1.3 2.2 0.2 2.2 1.3-0.2 1.3-2.2-0.2-2.2z"/>
  <path class="cls-7" d="m51.1 5.7v-0.1"/>
  <path class="cls-8" d="m51.1 5.7v1.1h0.9v-0.9"/>
  <path class="cls-7" d="m54 6.8h0.5"/>
  <path class="cls-10" d="m54 9.9h0.7v-1.4h-0.7v1.4z"/>
  <path class="cls-7" d="m57 10.1h0.6l-0.3-0.3"/>
  <path class="cls-10" d="m57.1 11.7h0.4v1.4h0.4v-0.6"/>
  <path class="cls-7" d="m59.7 12.2v0.9h0.9"/>
  <path class="cls-7" d="m59.9 14.8h0.5v1.4h0.3v-0.5"/>
  <path class="cls-7" d="m62.8 16.4h0.9l-0.4-0.3"/>
  <path class="cls-7" d="m62.8 18.4h0.5"/>
  <path class="cls-7" d="m65.3 19.4v-0.9h0.5"/>
  <path class="cls-8" d="m62.9 23.4h0.8v-1.5h-0.8v1.5z"/>
  <path class="cls-7" d="m62.8 25.3h0.5v1.4h-0.4"/>
  <path class="cls-8" d="m65.4 23.4h0.8v-1.5h-0.8v1.5z"/>
  <path class="cls-10" d="m65.3 26.7h0.9v-1.4h-0.9v1.4z"/>
  <path class="cls-7" d="m67.9 22.4v1h0.9v-0.7"/>
  <path class="cls-7" d="m67.9 25.3h0.5v1.4h0.4"/>
  <path class="cls-7" d="m65.4 28.8h0.4v1.2h0.5"/>
  <path class="cls-8" d="m65.3 33.5h0.9v-1.6h-0.9v1.6z"/>
  <path class="cls-10" d="m62.8 31.9h0.5v1.6h0.4v-0.5"/>
  <path class="cls-10" d="m67.9 31.9h0.5v1.6h0.4v-0.5"/>
  <path class="cls-7" d="m62.8 36.1h0.5v1.5h0.4"/>
  <path class="cls-7" d="m62.8 39.9h0.9l0.1 0.4"/>
  <path class="cls-7" d="m62.4 41.7 0.4 0.1"/>
  <path class="cls-8" d="m59.8 44.9h0.9v-1.5h-0.9v1.5z"/>
  <path class="cls-8" d="m57 48h0.9v-1.5h-0.9v1.5z"/>
  <path class="cls-7" d="m54.9 48.1 0.4-0.4v0.5"/>
  <path class="cls-10" d="m57 51 0.9 0.2"/>
  <path class="cls-7" d="m57.9 52.9v0.3"/>
  <path class="cls-10" d="m59.8 48h0.9v-1.5h-0.9v1.5z"/>
  <path class="cls-7" d="m59.6 49.8 0.6 0.2"/>
  <path class="cls-7" d="m62.2 50.5v-0.6h0.9l-0.5 0.6"/>
  <path class="cls-10" d="m62 54.5h0.9v-1.1l-0.5-0.4h-0.3l-0.1 1.5z"/>
  <path class="cls-7" d="m60.4 53.9"/>
  <path class="cls-7" d="m59.6 52.9"/>
  <path class="cls-7" d="m59.6 52.9"/>
  <path class="cls-7" d="m59.6 53h0.5v1.4h0.4"/>
  <path class="cls-7" d="m62.1 57.1v-0.9h0.8v1.1"/>
  <path class="cls-7" d="m62.8 59.2h1"/>
  <path class="cls-8" d="m62.8 63.1h0.9v-1.5h-0.9v1.5z"/>
  <path class="cls-10" d="m62.8 66.6h0.9v-1.6h-0.9v1.6z"/>
  <path class="cls-7" d="m62.8 68.8h0.5v1.6h0.4"/>
  <path class="cls-8" d="m62.8 74.1h0.9v-1.5h-0.9v1.5z"/>
  <path class="cls-7" d="m62.8 76.2h0.5v1.4h0.4"/>
  <path class="cls-8" d="m62.9 83.4h0.9v-1.5h-0.9v1.5z"/>
  <path class="cls-7" d="m59.9 81.6h0.5v1.5h0.4"/>
  <path class="cls-8" d="m57 86.2h0.9v-1.6h-0.9v1.6z"/>
  <path class="cls-10" d="m57 89.3h0.9v-1.5h-0.9v1.5z"/>
  <path class="cls-7" d="m55.5 86.1-0.4 0.1"/>
  <path class="cls-7" d="m54.1 87.8h0.4v1.4h0.4"/>
  <path class="cls-8" d="m51 92.1h0.8v-1.5h-0.8v1.5z"/>
  <path class="cls-10" d="m51 95.1h0.8v-1.5h-0.8v1.5z"/>
  <path class="cls-7" d="m48.4 93.4h0.2v1.2h0.4v-0.3"/>
  <path class="cls-7" d="m54.1 93.6h0.4v1.5h0.4"/>
  <path class="cls-7" d="m57 94.4v-0.6h0.7"/>
  <path class="cls-7" d="m59.9 90.9h0.6l-0.3-0.3"/>
  <path class="cls-10" d="m60.4 87.8h-0.3v1.5h0.6v-0.3"/>
  <path class="cls-10" d="m54.1 90.7h0.4v1.5h0.4v-0.5"/>
  <path class="cls-7" d="m57.1 90.9h0.4v1.3h0.4v-0.5"/>
  <path class="cls-7" d="m62.8 88 0.5 0.1"/>
  <path class="cls-10" d="m65.5 81.9h0.4v1.5h0.5v-0.5"/>
  <path class="cls-7" d="m65.4 79.1 0.5 0.1"/>
  <path class="cls-7" d="m67.8 79.2h0.6l0.1 1"/>
  <path class="cls-7" d="m68.2 82.2 0.6 0.1-0.4 0.6"/>
  <path class="cls-7" d="m65.4 86.1 0.1-1h0.8"/>
  <path class="cls-10" d="m67.9 76.1h0.6v1.5h0.3v-0.5"/>
  <path class="cls-8" d="m65.3 77.6h1v-1.4h-1v1.4z"/>
  <path class="cls-7" d="m65.4 72.6h0.4v1.5h0.5"/>
  <path class="cls-7" d="m65.4 68.8h0.4v1.6h0.5"/>
  <path class="cls-7" d="m65.4 65h0.4v1.6h0.5"/>
  <path class="cls-7" d="m65.4 61.6h0.4v1.4h0.5"/>
  <path class="cls-7" d="m65 56.2 0.4 0.1 0.1 1.5h0.4"/>
  <path class="cls-7" d="m67.9 65h0.5v1.6h0.4v-0.5"/>
  <path class="cls-8" d="m67.9 63h0.9v-1.4h-0.9v1.4z"/>
  <path class="cls-10" d="m67.9 70.4h0.9v-1.6h-0.9v1.6z"/>
  <path class="cls-7" d="m67.9 72.6h0.5l0.1 1.5h0.3"/>
  <path class="cls-7" d="m62.4 43.5h0.5v1.5h0.4"/>
  <path class="cls-7" d="m62.4 46.6h0.5v1.4h0.4"/>
  <path class="cls-7" d="m65.3 40.8 0.1-0.9h0.8v0.9"/>
  <path class="cls-10" d="m65.3 45.2h0.9v-1.5h-0.9v1.5z"/>
  <path class="cls-7" d="m65.3 48 0.1-1.3h0.9"/>
  <path class="cls-10" d="m67.9 41.3 0.9 0.2v-1.6h-0.9v1.4z"/>
  <path class="cls-7" d="m67.9 45.2 0.2-0.3"/>
  <path class="cls-10" d="m67.9 43.7h0.6l-0.1 0.8"/>
  <path class="cls-7" d="m65.4 36.1h0.4v1.5h0.5"/>
  <path class="cls-7" d="m67.9 36.1h0.5v1.5h0.4"/>
  <path class="cls-7" d="m67.9 28.8h0.5v1.2h0.4"/>
  <path class="cls-8" d="m62.8 30h0.9v-1.3h-0.9v1.3z"/>
  <path class="cls-8" d="m63.1 84.8h0.1v1.6h0.6"/>
</svg>