<svg xmlns="http://www.w3.org/2000/svg" viewBox="0 0 64 64" fill="none">
  <rect width="64" height="64" rx="18" fill="#0f172a"/>
  <rect x="6" y="6" width="52" height="52" rx="14" fill="url(#a)" stroke="#334155"/>
  <path d="M41.8 19.5c-2.6-1.8-5.9-2.8-9.6-2.8-7.8 0-13 4-13 10 0 5.3 3.6 8.1 11.1 10l3.6.9c4.6 1.1 6.2 2.2 6.2 4.5 0 2.7-2.6 4.5-6.7 4.5-4.2 0-8.1-1.6-11.4-4.7l-4.2 5.1c3.8 4.2 9.5 6.5 15.5 6.5 8.8 0 14.7-4.3 14.7-11 0-5.3-3-8.1-10.4-9.9l-3.7-.9c-4.8-1.2-6.7-2.1-6.7-4.7 0-2.4 2.2-4 5.7-4 3.4 0 6.5 1.1 9.2 3.3z" fill="#f8fafc"/>
  <defs>
    <linearGradient id="a" x1="10" y1="10" x2="54" y2="54" gradientUnits="userSpaceOnUse">
      <stop stop-color="#1e293b"/>
      <stop offset="1" stop-color="#111827"/>
    </linearGradient>
  </defs>
</svg>
